<svg width="179" height="55" viewBox="0 0 179 55" fill="none" xmlns="http://www.w3.org/2000/svg">
    <path d="M33 10.7453C188.364 39.6954 56.1503 -19.1861 122 10.7453" stroke="#FFB800" stroke-width="3"/>
    <path d="M21.6442 24.9978H35.5915V41.5569C33.5811 43.0288 31.436 44.0968 29.1563 44.761C26.8946 45.4251 24.5252 45.7572 22.0481 45.7572C18.817 45.7572 15.8732 45.2546 13.2166 44.2494C10.5779 43.2262 8.31615 41.8261 6.43138 40.0491C4.54661 38.254 3.09264 36.1359 2.06948 33.6947C1.04632 31.2355 0.534742 28.5699 0.534742 25.6979C0.534742 22.772 1.0194 20.0884 1.98871 17.6472C2.95802 15.188 4.34018 13.0699 6.1352 11.2928C7.94817 9.51577 10.1291 8.13361 12.6781 7.14635C15.2449 6.15909 18.108 5.66546 21.2672 5.66546C22.9007 5.66546 24.4354 5.80008 25.8714 6.06933C27.3075 6.33859 28.6268 6.70657 29.8295 7.17327C31.0501 7.63998 32.163 8.19643 33.1682 8.84264C34.1734 9.48885 35.0709 10.1889 35.8607 10.9428L33.2221 14.9547C32.8092 15.5829 32.2707 15.9689 31.6065 16.1125C30.9603 16.2561 30.2603 16.0945 29.5064 15.6278C28.7884 15.197 28.1062 14.829 27.46 14.5239C26.8318 14.2008 26.1856 13.9405 25.5214 13.743C24.8573 13.5456 24.1572 13.402 23.4212 13.3122C22.6853 13.2225 21.8596 13.1776 20.9441 13.1776C19.2388 13.1776 17.7041 13.4828 16.3399 14.0931C14.9757 14.6854 13.8089 15.5291 12.8396 16.624C11.8882 17.719 11.1523 19.0384 10.6317 20.5821C10.1112 22.1078 9.85089 23.8131 9.85089 25.6979C9.85089 27.7801 10.1381 29.629 10.7125 31.2445C11.2869 32.86 12.0947 34.2242 13.1358 35.3371C14.1948 36.45 15.4514 37.3027 16.9053 37.895C18.3772 38.4694 20.0017 38.7566 21.7788 38.7566C22.8738 38.7566 23.861 38.6489 24.7406 38.4335C25.6381 38.2181 26.5087 37.9309 27.3523 37.5719V31.6214H23.4751C22.9007 31.6214 22.4519 31.4689 22.1288 31.1637C21.8057 30.8586 21.6442 30.4726 21.6442 30.0059V24.9978ZM48.1828 21.7129C49.0444 20.2051 50.0317 19.0204 51.1446 18.1588C52.2755 17.2972 53.5679 16.8664 55.0219 16.8664C56.2784 16.8664 57.3015 17.1626 58.0913 17.7549L57.5528 23.8939C57.4631 24.2888 57.3105 24.558 57.0951 24.7016C56.8977 24.8452 56.6194 24.917 56.2604 24.917C56.1168 24.917 55.9283 24.9081 55.695 24.8901C55.4616 24.8722 55.2193 24.8542 54.968 24.8363C54.7167 24.8004 54.4564 24.7734 54.1872 24.7555C53.9359 24.7196 53.7025 24.7016 53.4871 24.7016C52.2665 24.7016 51.2882 25.0247 50.5523 25.671C49.8343 26.3172 49.2239 27.2147 48.7213 28.3635V45.3264H40.3745V17.4049H45.3288C45.7416 17.4049 46.0827 17.4408 46.3519 17.5126C46.6391 17.5844 46.8725 17.7011 47.052 17.8626C47.2494 18.0062 47.393 18.2037 47.4828 18.455C47.5905 18.7063 47.6802 19.0114 47.752 19.3704L48.1828 21.7129ZM73.3336 16.9741C75.4517 16.9741 77.3814 17.3062 79.1225 17.9703C80.8637 18.6345 82.3536 19.5858 83.5921 20.8244C84.8486 22.063 85.8179 23.5708 86.5001 25.3478C87.2001 27.107 87.5501 29.0905 87.5501 31.2983C87.5501 33.5242 87.2001 35.5346 86.5001 37.3296C85.8179 39.1067 84.8486 40.6235 83.5921 41.88C82.3536 43.1185 80.8637 44.0789 79.1225 44.761C77.3814 45.4251 75.4517 45.7572 73.3336 45.7572C71.1975 45.7572 69.2499 45.4251 67.4908 44.761C65.7496 44.0789 64.2418 43.1185 62.9673 41.88C61.7108 40.6235 60.7325 39.1067 60.0325 37.3296C59.3504 35.5346 59.0093 33.5242 59.0093 31.2983C59.0093 29.0905 59.3504 27.107 60.0325 25.3478C60.7325 23.5708 61.7108 22.063 62.9673 20.8244C64.2418 19.5858 65.7496 18.6345 67.4908 17.9703C69.2499 17.3062 71.1975 16.9741 73.3336 16.9741ZM73.3336 39.5644C75.2543 39.5644 76.6633 38.8913 77.5609 37.545C78.4763 36.1808 78.934 34.1165 78.934 31.3522C78.934 28.5879 78.4763 26.5326 77.5609 25.1863C76.6633 23.84 75.2543 23.1669 73.3336 23.1669C71.3591 23.1669 69.9141 23.84 68.9986 25.1863C68.0832 26.5326 67.6254 28.5879 67.6254 31.3522C67.6254 34.1165 68.0832 36.1808 68.9986 37.545C69.9141 38.8913 71.3591 39.5644 73.3336 39.5644ZM112.271 24.0285C112.019 24.3337 111.777 24.576 111.544 24.7555C111.31 24.935 110.978 25.0247 110.547 25.0247C110.134 25.0247 109.757 24.926 109.416 24.7286C109.093 24.5311 108.725 24.3157 108.312 24.0824C107.9 23.8311 107.415 23.6067 106.859 23.4092C106.302 23.2118 105.611 23.113 104.785 23.113C103.762 23.113 102.874 23.3015 102.12 23.6785C101.384 24.0554 100.773 24.5939 100.289 25.294C99.8041 25.9941 99.4451 26.8557 99.2117 27.8788C98.9784 28.884 98.8617 30.0239 98.8617 31.2983C98.8617 33.9729 99.3733 36.0282 100.396 37.4642C101.438 38.9002 102.865 39.6183 104.678 39.6183C105.647 39.6183 106.41 39.5016 106.966 39.2682C107.541 39.0169 108.025 38.7477 108.42 38.4605C108.815 38.1553 109.174 37.8771 109.497 37.6258C109.838 37.3745 110.26 37.2488 110.763 37.2488C111.427 37.2488 111.929 37.4912 112.271 37.9758L114.694 40.9645C113.832 41.9518 112.926 42.7595 111.974 43.3878C111.023 43.9981 110.045 44.4828 109.039 44.8418C108.052 45.1828 107.056 45.4162 106.051 45.5418C105.046 45.6854 104.067 45.7572 103.116 45.7572C101.411 45.7572 99.7772 45.4341 98.2155 44.7879C96.6718 44.1417 95.3076 43.2083 94.1229 41.9877C92.9561 40.7491 92.0227 39.2323 91.3226 37.4373C90.6405 35.6423 90.2995 33.596 90.2995 31.2983C90.2995 29.2879 90.5956 27.4121 91.188 25.671C91.7983 23.9118 92.6868 22.395 93.8536 21.1206C95.0383 19.8282 96.4923 18.814 98.2155 18.078C99.9567 17.3421 101.967 16.9741 104.247 16.9741C106.437 16.9741 108.357 17.3241 110.009 18.0242C111.66 18.7242 113.15 19.7474 114.478 21.0936L112.271 24.0285ZM126.478 17.4049V45.3264H118.131V17.4049H126.478ZM127.339 9.7581C127.339 10.4223 127.205 11.0505 126.936 11.6429C126.666 12.2173 126.298 12.7289 125.832 13.1776C125.365 13.6084 124.817 13.9584 124.189 14.2277C123.579 14.479 122.924 14.6047 122.224 14.6047C121.542 14.6047 120.904 14.479 120.312 14.2277C119.72 13.9584 119.19 13.6084 118.723 13.1776C118.275 12.7289 117.916 12.2173 117.646 11.6429C117.395 11.0505 117.269 10.4223 117.269 9.7581C117.269 9.07599 117.395 8.43876 117.646 7.8464C117.916 7.25405 118.275 6.73349 118.723 6.28474C119.19 5.83598 119.72 5.48595 120.312 5.23465C120.904 4.98335 121.542 4.8577 122.224 4.8577C122.924 4.8577 123.579 4.98335 124.189 5.23465C124.817 5.48595 125.365 5.83598 125.832 6.28474C126.298 6.73349 126.666 7.25405 126.936 7.8464C127.205 8.43876 127.339 9.07599 127.339 9.7581ZM134.372 45.3264V23.14L132.541 22.763C131.913 22.6194 131.402 22.395 131.007 22.0899C130.63 21.7847 130.441 21.336 130.441 20.7436V17.4587H134.372V15.8701C134.372 14.2726 134.624 12.8276 135.126 11.5352C135.647 10.2428 136.383 9.13882 137.334 8.22336C138.303 7.3079 139.479 6.59887 140.861 6.09626C142.244 5.59366 143.814 5.34235 145.573 5.34235C146.255 5.34235 146.884 5.38723 147.458 5.47698C148.032 5.54878 148.634 5.67443 149.262 5.85393L149.101 9.91965C149.083 10.2069 149.011 10.4492 148.885 10.6466C148.759 10.8261 148.589 10.9787 148.374 11.1044C148.176 11.2121 147.961 11.2928 147.727 11.3467C147.494 11.4005 147.261 11.4275 147.027 11.4275C146.291 11.4275 145.636 11.4993 145.062 11.6429C144.487 11.7865 144.003 12.0468 143.608 12.4237C143.231 12.7827 142.944 13.2674 142.746 13.8777C142.549 14.47 142.45 15.2239 142.45 16.1394V17.4587H148.993V23.1669H142.719V45.3264H134.372ZM178.541 17.4049L163.625 52.5693C163.373 53.1258 163.068 53.5297 162.709 53.781C162.35 54.0502 161.776 54.1848 160.986 54.1848H154.739L160.124 42.8762L148.977 17.4049H156.355C157.001 17.4049 157.495 17.5485 157.836 17.8357C158.195 18.1229 158.455 18.4639 158.617 18.8589L163.194 30.8945C163.625 31.9894 163.975 33.1113 164.244 34.2601C164.441 33.6857 164.639 33.1113 164.836 32.5369C165.034 31.9625 165.24 31.3971 165.456 30.8406L169.602 18.8589C169.764 18.446 170.051 18.1049 170.464 17.8357C170.876 17.5485 171.325 17.4049 171.81 17.4049H178.541Z" fill="#FFB800"/>
    </svg>
    